<svg height="256" width="256" id="outputsvg"  xmlns="http://www.w3.org/2000/svg"  style="transform: none;   cursor: move;" viewBox="0 0 256 256">  <g fill="none" stroke="black" stroke-width="2"><path d="M8 17 L8 17 L9 17 L10 17 L11 17 L12 17 L13 18 L13 18 L14 18 L15 18 L16 19 L16 19 L17 19 L18 19 L19 19 L20 20 L20 20 L21 20 L22 20 L23 21 L23 21 L24 21 L25 22 L25 22 L26 22 L27 22 L28 23 L28 23 L29 23 L30 24 L30 24 L31 24 L32 25 L32 25 L33 25 L34 26 L34 26 L35 26 L36 27 L36 27 L37 28 L37 28 L38 28 L39 29 L39 29 L40 29 L41 30 L41 30 L42 31 L42 31 L43 31 L44 32 L44 32 L45 32 L46 33 L46 33 L47 34 L47 34 L48 35 L48 35 L49 35 L50 36 L50 36 L51 37 L51 37 L52 38 L52 38 L53 38 L54 39 L54 39 L55 40 L55 40 L56 41 L56 41 L57 42 L57 42 L58 42 L59 43 L59 43 L60 44 L60 44 L61 45 L61 45 L62 46 L62 46 L63 47 L63 47 L64 48 L64 48 L65 49 L65 49 L66 50 L66 50 L67 51 L67 51 L68 52 L68 52 L69 53 L69 53 L70 54 L70 54 L71 55 L71 55 L72 56 L72 56 L73 57 L73 57 L74 58 L74 58 L74 58 L75 57 L76 57 L76 57 L77 56 L78 56 L79 56 L79 56 L80 55 L81 55 L82 55 L82 55 L83 54 L84 54 L85 54 L86 54 L86 54 L87 53 L88 53 L89 53 L90 53 L91 53 L92 53 L92 53 L93 52 L94 52 L95 52 L96 52 L97 52 L98 52 L99 52 L100 52 L101 52 L102 52 L103 52 L104 52 L105 52 L106 52 L107 52 L108 52 L109 52 L110 52 L111 52 L112 53 L112 53 L113 53 L114 53 L115 53 L116 53 L117 54 L117 54 L118 54 L119 54 L120 54 L121 54 L122 55 L122 55 L123 55 L124 55 L125 56 L125 56 L126 56 L127 57 L127 57 L128 57 L129 57 L130 58 L130 58 L130 58 L131 57 L131 57 L132 56 L132 56 L133 55 L133 55 L134 54 L134 54 L135 53 L135 53 L136 52 L136 52 L137 51 L137 51 L138 50 L138 50 L139 49 L139 49 L140 48 L140 48 L141 47 L141 47 L142 46 L143 46 L143 46 L144 45 L144 45 L145 44 L145 44 L146 43 L146 43 L147 42 L147 42 L148 41 L149 41 L149 41 L150 40 L150 40 L151 39 L152 39 L152 39 L153 38 L153 38 L154 37 L154 37 L155 36 L156 36 L156 36 L157 35 L157 35 L158 34 L159 34 L159 34 L160 33 L161 33 L161 33 L162 32 L162 32 L163 31 L164 31 L164 31 L165 30 L166 30 L166 30 L167 29 L168 29 L168 29 L169 28 L170 28 L170 28 L171 27 L172 27 L172 27 L173 26 L174 26 L175 26 L175 26 L176 25 L177 25 L177 25 L178 24 L179 24 L179 24 L180 23 L181 23 L182 23 L182 23 L183 22 L184 22 L185 22 L185 22 L186 21 L187 21 L188 21 L189 21 L189 21 L190 20 L191 20 L192 20 L193 20 L194 20 L194 20 L195 19 L196 19 L197 19 L198 19 L199 19 L200 19 L201 19 L202 20 L202 20 L203 21 L203 22 L203 23 L203 24 L202 25 L202 25 L202 26 L201 27 L201 27 L201 28 L200 29 L200 29 L200 30 L199 31 L199 31 L198 32 L198 32 L198 33 L197 34 L197 34 L196 35 L196 35 L196 36 L195 37 L195 37 L194 38 L194 38 L193 39 L193 39 L192 40 L192 40 L191 41 L191 41 L191 42 L190 43 L190 43 L189 44 L189 44 L188 45 L188 45 L187 46 L187 46 L186 47 L186 47 L185 48 L185 48 L184 49 L184 49 L183 50 L183 50 L182 51 L182 51 L181 52 L181 52 L180 53 L180 53 L179 54 L179 54 L178 55 L178 55 L177 56 L177 56 L176 57 L176 57 L175 58 L175 58 L174 59 L174 59 L173 60 L172 60 L172 60 L171 61 L171 61 L170 62 L170 62 L169 63 L168 63 L168 63 L167 64 L167 64 L166 65 L166 65 L165 66 L165 66 L164 67 L163 67 L163 67 L162 68 L162 68 L161 69 L160 69 L160 69 L159 70 L159 70 L158 71 L157 71 L157 71 L156 72 L156 72 L155 73 L154 73 L154 73 L153 74 L152 74 L152 74 L151 75 L150 75 L150 75 L149 76 L148 76 L148 76 L147 77 L147 77 L147 78 L147 79 L147 80 L147 80 L148 81 L148 82 L148 83 L148 84 L148 85 L148 85 L149 86 L149 87 L149 88 L149 89 L149 90 L149 91 L149 92 L149 93 L149 94 L149 95 L149 96 L149 96 L150 96 L150 96 L151 95 L152 95 L152 95 L153 94 L154 94 L155 94 L155 94 L156 93 L157 93 L157 93 L158 92 L159 92 L159 92 L160 91 L161 91 L161 91 L162 90 L163 90 L164 90 L164 90 L165 89 L166 89 L166 89 L167 88 L168 88 L168 88 L169 87 L170 87 L171 87 L171 87 L172 86 L173 86 L173 86 L174 85 L175 85 L175 85 L176 84 L177 84 L178 84 L178 84 L179 83 L180 83 L181 83 L181 83 L182 82 L183 82 L183 82 L184 81 L185 81 L185 81 L186 80 L187 80 L188 80 L188 80 L189 79 L190 79 L191 79 L191 79 L192 78 L193 78 L193 78 L194 77 L195 77 L196 77 L196 77 L197 76 L198 76 L198 76 L199 75 L200 75 L201 75 L201 75 L202 74 L203 74 L204 74 L204 74 L205 73 L206 73 L207 73 L207 73 L208 72 L209 72 L209 72 L210 71 L211 71 L212 71 L212 71 L213 70 L214 70 L215 70 L216 70 L216 70 L217 69 L218 69 L219 69 L220 69 L221 69 L222 69 L223 69 L224 70 L224 70 L225 71 L225 72 L225 72 L226 73 L226 73 L227 74 L227 75 L227 75 L228 76 L228 76 L229 77 L229 78 L229 78 L230 79 L230 80 L230 80 L231 81 L231 81 L232 82 L232 83 L232 83 L233 84 L233 85 L233 85 L234 86 L234 87 L234 87 L235 88 L235 89 L235 89 L236 90 L236 91 L236 91 L237 92 L237 93 L237 93 L238 94 L238 95 L238 95 L239 96 L239 97 L239 97 L240 98 L240 99 L240 99 L241 100 L241 101 L241 101 L242 102 L242 103 L242 103 L243 104 L243 105 L243 106 L243 106 L244 107 L244 108 L244 108 L245 109 L245 110 L245 111 L245 111 L246 112 L246 113 L246 113 L247 114 L247 115 L247 116 L247 116 L248 117 L248 118 L248 118 L249 119 L249 120 L249 121 L249 122 L249 122 L250 123 L250 124 L250 125 L250 126 L250 127 L249 128 L249 128 L248 129 L247 129 L246 129 L245 129 L244 129 L243 129 L243 129 L242 130 L241 130 L240 130 L239 130 L238 130 L237 130 L236 130 L236 130 L235 131 L234 131 L233 131 L232 131 L231 131 L230 131 L229 131 L228 131 L228 131 L227 132 L226 132 L225 132 L224 132 L223 132 L222 132 L221 132 L221 132 L220 133 L219 133 L218 133 L217 133 L216 133 L215 133 L214 133 L214 133 L213 134 L212 134 L211 134 L210 134 L209 134 L208 134 L207 134 L207 134 L206 135 L205 135 L204 135 L203 135 L202 135 L201 135 L201 135 L200 136 L199 136 L198 136 L197 136 L196 136 L195 136 L194 136 L193 136 L193 136 L192 137 L191 137 L190 137 L189 137 L188 137 L187 137 L187 137 L186 138 L185 138 L184 138 L183 138 L182 138 L181 138 L180 138 L180 138 L179 139 L178 139 L177 139 L176 139 L175 139 L174 139 L174 139 L173 140 L172 140 L171 140 L170 140 L170 140 L170 141 L170 141 L171 142 L171 143 L171 143 L172 144 L172 145 L172 145 L173 146 L173 147 L173 147 L174 148 L174 149 L174 149 L175 150 L175 151 L175 151 L176 152 L176 153 L176 153 L177 154 L177 155 L177 155 L178 156 L178 157 L178 157 L179 158 L179 159 L179 159 L180 160 L180 160 L181 161 L181 162 L181 162 L182 163 L182 164 L182 164 L183 165 L183 166 L183 166 L184 167 L184 168 L184 169 L184 170 L184 171 L183 172 L183 172 L182 173 L181 173 L180 173 L179 173 L179 173 L178 174 L177 174 L176 174 L176 174 L175 175 L174 175 L173 175 L173 175 L172 176 L171 176 L170 176 L169 176 L169 176 L168 177 L167 177 L166 177 L166 177 L165 178 L164 178 L163 178 L162 178 L162 178 L161 179 L160 179 L160 179 L160 180 L160 180 L161 181 L161 181 L162 182 L162 183 L162 183 L163 184 L163 185 L163 185 L164 186 L164 186 L165 187 L165 188 L165 188 L166 189 L166 189 L167 190 L167 191 L167 191 L168 192 L168 193 L168 193 L169 194 L169 195 L168 196 L168 196 L167 197 L167 197 L166 198 L165 198 L165 198 L164 199 L163 199 L163 199 L162 200 L161 200 L161 200 L160 201 L159 201 L158 201 L158 201 L157 202 L156 202 L156 202 L155 203 L154 203 L154 203 L154 204 L154 205 L154 206 L154 207 L154 208 L154 209 L154 210 L153 211 L153 211 L153 212 L153 213 L153 214 L153 215 L152 216 L152 216 L152 217 L152 218 L151 219 L151 219 L151 220 L151 221 L150 222 L150 222 L150 223 L149 224 L149 224 L148 225 L148 225 L147 226 L147 226 L146 227 L146 227 L145 228 L145 228 L144 229 L144 229 L143 230 L143 230 L142 231 L141 231 L141 231 L140 232 L139 232 L139 232 L138 233 L137 233 L137 233 L136 234 L135 234 L134 234 L133 234 L133 234 L132 235 L131 235 L130 235 L129 235 L128 235 L127 235 L127 235 L126 236 L125 236 L124 236 L123 236 L122 236 L121 236 L121 236 L120 237 L120 237 L119 238 L119 238 L118 239 L117 239 L116 239 L115 239 L114 239 L113 239 L112 238 L112 238 L111 237 L111 237 L110 236 L110 236 L109 235 L109 234 L109 233 L109 233 L108 233 L107 233 L106 232 L106 232 L105 232 L104 232 L103 231 L103 231 L102 231 L101 231 L100 231 L99 231 L98 230 L98 230 L97 230 L96 230 L95 230 L94 230 L93 230 L92 230 L91 230 L90 230 L89 230 L88 230 L87 230 L86 230 L85 230 L84 230 L83 230 L82 230 L81 230 L80 230 L79 230 L78 230 L77 230 L76 230 L75 230 L74 230 L73 230 L72 230 L71 230 L70 230 L69 230 L68 230 L67 230 L66 230 L65 230 L64 230 L63 230 L63 230 L62 231 L62 231 L61 232 L60 232 L59 232 L58 232 L57 232 L56 232 L55 231 L55 231 L54 231 L53 230 L53 230 L52 229 L52 229 L51 228 L51 228 L50 227 L50 226 L50 226 L49 225 L49 225 L48 224 L48 223 L48 223 L47 222 L47 222 L46 221 L46 220 L46 220 L45 219 L45 218 L45 218 L44 217 L44 216 L44 216 L43 215 L43 214 L43 214 L42 213 L42 212 L42 211 L42 211 L41 210 L41 209 L41 208 L41 208 L40 207 L40 206 L40 205 L40 205 L39 204 L39 203 L39 202 L39 201 L39 201 L38 200 L38 199 L38 198 L38 197 L38 196 L38 195 L38 195 L37 194 L37 193 L37 192 L37 191 L37 190 L37 189 L37 188 L37 187 L37 186 L38 185 L38 185 L38 184 L39 183 L39 183 L39 182 L40 181 L41 181 L41 181 L42 180 L43 180 L44 180 L45 181 L45 181 L46 181 L47 181 L48 182 L48 182 L49 183 L49 183 L50 184 L50 184 L50 184 L51 183 L51 183 L52 182 L52 182 L53 181 L54 181 L54 181 L55 180 L56 180 L56 180 L56 179 L56 178 L56 177 L56 176 L56 175 L56 174 L56 173 L56 172 L56 171 L56 170 L56 169 L56 168 L56 167 L56 166 L56 165 L56 164 L56 163 L57 162 L57 162 L57 161 L57 160 L57 159 L57 158 L57 157 L58 156 L58 156 L58 155 L58 154 L58 153 L59 152 L59 152 L59 151 L59 150 L60 149 L60 149 L60 148 L60 147 L61 146 L61 146 L61 145 L61 144 L62 143 L62 143 L62 142 L63 141 L63 141 L64 140 L64 140 L64 139 L64 139 L63 138 L63 138 L62 137 L62 137 L61 136 L61 136 L60 135 L60 135 L59 134 L59 134 L58 133 L58 133 L57 132 L57 132 L56 131 L56 131 L55 130 L55 130 L54 129 L54 128 L54 128 L53 127 L53 127 L52 126 L52 125 L52 125 L51 124 L51 123 L51 122 L51 122 L50 121 L50 120 L50 119 L50 118 L50 117 L50 116 L50 115 L50 114 L50 113 L50 112 L51 111 L51 111 L51 110 L51 109 L52 108 L52 108 L52 107 L52 106 L52 105 L52 104 L53 103 L53 103 L53 102 L53 101 L53 100 L53 99 L53 98 L53 97 L53 96 L53 95 L53 94 L53 93 L53 92 L53 91 L53 90 L53 89 L53 88 L54 87 L54 87 L54 86 L54 85 L54 84 L54 83 L55 82 L55 82 L55 81 L55 80 L55 79 L56 78 L56 78 L56 77 L56 76 L56 76 L55 76 L54 75 L54 75 L53 75 L52 74 L52 74 L51 74 L50 73 L50 73 L49 72 L49 72 L48 72 L47 71 L47 71 L46 71 L45 70 L45 70 L44 69 L44 69 L43 69 L42 68 L42 68 L41 67 L41 67 L40 66 L40 66 L39 66 L38 65 L38 65 L37 64 L37 64 L36 63 L36 63 L35 63 L34 62 L34 62 L33 61 L33 61 L32 60 L32 60 L31 59 L31 59 L30 58 L30 58 L29 57 L29 57 L28 56 L28 56 L27 55 L27 55 L26 54 L26 54 L25 53 L25 53 L24 52 L24 52 L23 51 L23 51 L22 50 L22 50 L21 49 L21 48 L21 48 L20 47 L20 47 L19 46 L19 46 L18 45 L18 44 L18 44 L17 43 L17 43 L16 42 L16 41 L16 41 L15 40 L15 40 L14 39 L14 39 L13 38 L13 37 L13 37 L12 36 L12 35 L12 35 L11 34 L11 33 L11 33 L10 32 L10 31 L10 31 L9 30 L9 29 L9 29 L8 28 L8 27 L8 27 L7 26 L7 25 L7 24 L7 24 L6 23 L6 22 L6 21 L6 20 L6 19 L7 18 L7 18 z" stroke = "rgb(255,255,255)"/><path d="M8 18 L8 18 L8 18 z" stroke = "rgb(197,196,195)"/><path d="M9 18 L9 18 L10 18 L11 18 L12 18 z" stroke = "rgb(138,138,137)"/><path d="M7 19 L7 19 L7 19 z" stroke = "rgb(177,173,172)"/><path d="M7 22 L7 22 L8 23 L8 25 L9 26 L9 27 L10 28 L10 29 L11 30 L11 31 L12 32 L12 33 L13 34 L13 35 L14 36 L14 37 L15 38 L15 38 L16 39 L17 41 L18 42 L19 44 L20 45 L20 45 L21 46 L22 48 L23 49 L23 49 L24 50 L24 50 L25 51 L25 51 L26 52 L26 52 L27 53 L27 53 L28 54 L29 52 L29 52 L28 51 L28 51 L27 50 L27 50 L26 49 L26 48 L26 47 L26 46 L26 45 L26 44 L26 43 L26 42 L26 41 L26 40 L26 39 L26 38 L26 37 L26 36 L26 35 L26 34 L26 33 L26 32 L27 31 L27 31 L27 30 L27 29 L28 28 L28 28 L29 27 L30 28 L30 28 L31 28 L32 29 L32 29 L33 29 L34 30 L34 30 L35 31 L35 31 L36 31 L37 32 L37 32 L38 32 L39 33 L39 33 L40 34 L40 34 L41 34 L42 35 L42 35 L43 36 L43 36 L44 36 L45 37 L45 37 L46 38 L46 38 L47 38 L48 39 L48 39 L49 40 L49 40 L50 41 L50 41 L51 41 L52 42 L52 42 L53 43 L53 43 L54 44 L54 44 L55 45 L55 45 L56 46 L56 46 L57 46 L58 47 L58 47 L59 48 L59 48 L60 49 L60 49 L61 50 L61 50 L62 51 L62 51 L63 52 L63 52 L64 53 L64 53 L65 54 L65 54 L66 55 L66 55 L67 56 L67 56 L68 57 L68 57 L69 58 L69 58 L70 59 L70 59 L71 60 L71 61 L71 61 L72 62 L72 63 L72 63 L73 63 L73 63 L74 62 L74 62 L75 61 L76 61 L77 61 L77 61 L78 60 L79 60 L79 60 L80 59 L81 59 L82 59 L82 59 L83 58 L84 58 L85 58 L85 58 L86 57 L87 57 L88 57 L89 57 L89 57 L90 56 L91 56 L92 56 L93 56 L94 56 L95 56 L96 56 L97 56 L98 56 L99 56 L100 56 L101 56 L102 56 L103 56 L104 56 L105 56 L106 56 L107 56 L108 56 L109 56 L110 56 L111 56 L112 56 L113 56 L114 57 L114 57 L115 57 L116 57 L117 57 L118 57 L119 58 L119 58 L120 58 L121 58 L122 59 L122 59 L123 59 L124 59 L125 60 L125 60 L126 60 L127 60 L128 61 L128 61 L129 61 L130 62 L130 62 L131 63 L131 63 L132 63 L132 63 L132 62 L133 61 L133 61 L133 60 L134 59 L134 59 L135 58 L135 58 L136 57 L136 57 L137 56 L137 56 L138 55 L138 55 L139 54 L139 54 L140 53 L140 53 L141 52 L141 52 L142 51 L142 51 L143 50 L143 50 L144 49 L145 49 L145 49 L146 48 L146 48 L147 47 L147 47 L148 46 L148 46 L149 45 L149 45 L150 44 L151 44 L151 44 L152 43 L152 43 L153 42 L154 42 L154 42 L155 41 L155 41 L156 40 L156 40 L157 39 L158 39 L158 39 L159 38 L160 38 L160 38 L161 37 L161 37 L162 36 L163 36 L163 36 L164 35 L165 35 L165 35 L166 34 L166 34 L167 33 L168 33 L168 33 L169 32 L170 32 L170 32 L171 31 L172 31 L172 31 L173 30 L174 30 L174 30 L175 29 L176 29 L177 29 L178 29 L179 30 L179 31 L179 32 L179 33 L179 34 L179 35 L179 35 L180 36 L179 37 L179 37 L179 38 L179 39 L179 40 L179 41 L179 42 L179 43 L179 44 L179 45 L179 46 L178 47 L178 47 L178 48 L178 49 L178 50 L177 51 L177 51 L176 52 L176 52 L175 53 L175 53 L174 54 L174 54 L173 55 L172 55 L172 55 L171 56 L171 56 L170 57 L170 57 L169 58 L169 58 L168 59 L168 59 L167 60 L166 60 L166 60 L165 61 L165 61 L164 62 L164 62 L163 63 L162 63 L162 63 L161 64 L161 64 L160 65 L159 65 L159 65 L158 66 L158 66 L157 67 L156 67 L156 67 L155 68 L155 68 L154 69 L153 69 L153 69 L152 70 L151 70 L151 70 L150 71 L150 71 L149 72 L148 72 L148 72 L147 73 L146 73 L146 73 L145 74 L144 74 L144 74 L143 75 L142 75 L142 75 L142 76 L142 76 L143 77 L143 78 L143 79 L143 79 L144 80 L144 81 L144 82 L144 83 L144 83 L145 84 L145 85 L145 86 L145 87 L145 88 L145 89 L145 90 L145 90 L146 91 L145 92 L145 92 L145 93 L145 93 L146 94 L146 95 L146 96 L146 97 L146 98 L146 99 L146 100 L146 101 L146 102 L147 102 L147 103 L146 103 L146 103 L147 104 L147 104 L147 105 L147 105 L147 105 L148 101 L149 101 L149 101 L150 100 L151 100 L151 100 L152 99 L153 99 L153 99 L154 98 L155 98 L155 98 L156 97 L157 97 L157 97 L158 96 L159 96 L159 96 L160 95 L161 95 L161 95 L162 94 L163 94 L164 94 L164 94 L165 93 L166 93 L166 93 L167 92 L168 92 L168 92 L169 91 L170 91 L171 91 L171 91 L172 90 L173 90 L173 90 L174 89 L175 89 L175 89 L176 88 L177 88 L178 88 L178 88 L179 87 L180 87 L180 87 L181 86 L182 86 L183 86 L183 86 L184 85 L185 85 L185 85 L186 84 L187 84 L188 84 L188 84 L189 83 L190 83 L190 83 L191 82 L192 82 L193 82 L193 82 L194 81 L195 81 L196 81 L196 81 L197 80 L198 80 L198 80 L199 79 L200 79 L201 79 L201 79 L202 78 L203 78 L204 78 L204 78 L205 77 L206 77 L206 77 L207 76 L208 76 L209 76 L209 76 L210 75 L211 75 L212 75 L212 75 L213 74 L214 74 L215 74 L215 74 L216 73 L217 73 L218 73 L219 73 L219 73 L220 72 L221 73 L221 73 L222 74 L222 74 L223 75 L223 75 L224 76 L224 77 L224 77 L225 78 L225 78 L226 79 L226 80 L226 80 L227 81 L227 82 L227 82 L228 83 L228 84 L228 84 L229 85 L229 85 L230 86 L230 87 L230 87 L231 88 L231 89 L231 89 L232 90 L232 91 L232 91 L233 92 L233 93 L233 93 L234 94 L234 95 L234 95 L235 96 L235 97 L235 97 L236 98 L236 99 L236 99 L237 100 L237 101 L237 101 L238 102 L238 103 L238 104 L238 104 L239 105 L239 106 L239 106 L240 107 L240 108 L240 108 L241 109 L241 110 L241 110 L242 111 L242 112 L242 113 L242 113 L243 114 L243 115 L243 116 L243 116 L244 117 L244 118 L244 118 L245 119 L245 120 L245 121 L245 121 L246 122 L246 123 L246 124 L246 125 L245 126 L244 126 L243 126 L242 126 L241 126 L240 126 L239 126 L238 126 L238 126 L237 127 L236 127 L235 127 L234 127 L233 127 L232 127 L231 127 L230 127 L230 127 L229 128 L228 128 L227 128 L226 128 L225 128 L224 128 L223 128 L222 128 L222 128 L221 129 L220 129 L219 129 L218 129 L217 129 L216 129 L215 129 L215 129 L214 130 L213 130 L212 130 L211 130 L210 130 L209 130 L208 130 L208 130 L207 131 L206 131 L205 131 L204 131 L203 131 L202 131 L201 131 L201 131 L200 132 L199 132 L198 132 L197 132 L196 132 L195 132 L194 132 L194 132 L193 133 L192 133 L191 133 L190 133 L189 133 L188 133 L188 133 L187 134 L186 134 L185 134 L184 134 L183 134 L182 134 L181 134 L181 134 L180 135 L179 135 L178 135 L177 135 L176 135 L175 135 L175 135 L174 136 L173 136 L172 136 L171 136 L170 136 L169 136 L168 135 L168 135 L168 134 L168 134 L169 134 L169 134 L169 133 L169 133 L169 133 L167 136 L167 136 L167 137 L166 138 L166 138 L165 139 L165 139 L165 140 L165 141 L164 141 L164 141 L164 142 L164 142 L164 142 L166 142 L166 142 L167 143 L167 144 L167 144 L168 145 L168 146 L168 146 L169 147 L169 147 L170 148 L170 149 L170 149 L171 150 L171 151 L171 151 L172 152 L172 153 L172 153 L173 154 L173 155 L173 155 L174 156 L174 157 L174 157 L175 158 L175 159 L175 159 L176 160 L176 161 L176 161 L177 162 L177 163 L177 163 L178 164 L178 165 L178 165 L179 166 L179 167 L179 167 L180 168 L179 169 L179 169 L178 170 L177 170 L176 170 L176 170 L175 171 L174 171 L173 171 L172 171 L172 171 L171 172 L170 172 L169 172 L169 172 L168 173 L167 173 L166 173 L165 173 L165 173 L164 174 L163 174 L162 174 L162 174 L161 175 L160 175 L159 175 L159 175 L158 176 L157 176 L156 176 L155 176 L155 176 L154 177 L154 177 L154 177 L155 178 L155 179 L155 179 L156 180 L156 180 L157 181 L157 182 L157 183 L157 184 L157 185 L157 185 L158 186 L158 186 L159 187 L159 187 L160 188 L160 189 L160 189 L161 190 L161 191 L161 192 L161 193 L161 193 L160 194 L160 194 L159 194 L158 193 L158 193 L157 193 L157 193 L157 194 L156 195 L156 195 L156 195 L155 196 L155 196 L154 196 L153 196 L153 196 L153 197 L152 198 L151 197 L151 197 L150 196 L150 195 L150 194 L150 193 L149 193 L149 194 L149 195 L149 196 L149 197 L149 198 L149 198 L150 199 L150 200 L150 201 L150 202 L150 203 L150 204 L150 205 L150 206 L150 207 L150 208 L150 209 L150 210 L150 211 L150 212 L149 213 L149 213 L149 214 L149 215 L149 216 L148 217 L148 217 L148 218 L148 219 L147 220 L147 220 L146 221 L146 221 L146 222 L145 223 L145 223 L144 224 L144 224 L143 225 L143 225 L142 226 L142 226 L141 227 L140 227 L140 227 L139 228 L139 228 L138 229 L137 229 L137 229 L136 230 L135 230 L134 230 L134 230 L133 231 L132 231 L131 231 L130 231 L129 231 L129 231 L128 232 L127 232 L126 232 L125 232 L124 232 L123 232 L122 231 L121 231 L121 230 L121 230 L122 230 L122 229 L122 229 L122 228 L122 228 L123 228 L123 228 L123 227 L123 227 L123 227 L120 232 L120 232 L119 233 L119 233 L118 234 L118 234 L117 235 L116 235 L115 235 L114 235 L113 234 L113 233 L113 232 L113 232 L112 231 L111 230 L110 230 L109 229 L109 229 L108 229 L107 229 L106 228 L106 228 L105 228 L104 228 L103 227 L103 227 L102 227 L101 227 L100 227 L99 227 L98 226 L98 226 L97 226 L96 226 L95 226 L94 226 L93 226 L92 226 L91 226 L90 226 L89 226 L88 226 L87 226 L86 226 L85 226 L84 226 L83 226 L82 226 L81 226 L81 226 L80 227 L79 226 L79 226 L79 226 L78 227 L77 227 L76 227 L75 227 L74 227 L73 227 L72 227 L71 227 L70 227 L69 227 L68 226 L68 226 L68 226 L67 227 L66 226 L66 226 L65 226 L64 226 L63 226 L62 226 L61 225 L61 225 L61 224 L61 224 L61 223 L61 223 L61 223 L60 226 L60 226 L60 227 L59 228 L59 228 L58 229 L57 228 L57 228 L56 227 L56 227 L55 226 L55 226 L54 225 L54 225 L53 224 L53 224 L52 223 L52 223 L51 222 L51 221 L51 221 L50 220 L50 219 L50 219 L49 218 L49 218 L48 217 L48 216 L48 216 L47 215 L47 214 L47 213 L47 213 L46 212 L46 211 L46 211 L45 210 L45 209 L45 208 L45 208 L44 207 L44 206 L44 205 L44 205 L43 204 L43 203 L43 202 L43 201 L43 201 L42 200 L42 199 L42 198 L42 197 L42 196 L42 196 L41 195 L41 194 L41 193 L41 192 L42 191 L42 190 L42 189 L42 188 L42 187 L42 186 L42 185 L43 184 L44 185 L44 185 L45 185 L46 185 L47 186 L47 187 L47 187 L48 188 L48 188 L49 189 L50 189 L50 190 L49 190 L49 190 L50 191 L50 191 L50 192 L50 192 L50 192 L51 188 L51 188 L52 187 L52 187 L53 186 L53 186 L54 185 L54 185 L55 184 L56 184 L56 184 L57 183 L58 183 L59 183 L60 183 L60 183 L60 182 L60 181 L60 180 L60 179 L60 178 L60 177 L60 176 L60 175 L60 175 L59 174 L59 173 L59 172 L59 171 L59 170 L60 169 L60 169 L60 168 L60 167 L60 166 L60 165 L60 164 L60 163 L60 162 L60 161 L60 160 L61 159 L61 159 L61 158 L61 157 L61 156 L62 155 L62 155 L62 154 L62 153 L62 152 L63 151 L63 151 L63 150 L64 149 L64 149 L64 148 L64 147 L65 146 L65 146 L65 145 L65 144 L66 143 L66 143 L67 142 L67 142 L67 141 L68 140 L68 140 L69 139 L69 139 L70 139 L70 139 L70 140 L70 140 L71 140 L71 140 L71 140 L68 138 L68 138 L67 137 L67 137 L66 136 L66 136 L65 135 L65 135 L64 134 L64 134 L63 133 L63 133 L62 132 L62 132 L61 131 L61 131 L60 130 L60 129 L60 128 L60 128 L59 128 L58 127 L58 127 L57 126 L57 126 L56 125 L56 124 L56 124 L55 123 L55 122 L55 122 L54 121 L54 120 L54 119 L54 118 L54 117 L54 116 L55 115 L55 115 L55 114 L55 113 L56 113 L56 113 L56 113 L55 111 L55 111 L55 110 L55 109 L55 108 L56 107 L56 107 L56 106 L56 105 L56 104 L56 103 L56 102 L56 101 L57 100 L57 100 L57 99 L57 98 L57 97 L57 96 L57 95 L57 94 L57 93 L57 92 L57 91 L57 90 L57 89 L57 88 L57 87 L57 86 L58 85 L58 85 L58 84 L58 83 L58 82 L59 81 L59 81 L59 80 L59 79 L60 78 L60 78 L60 77 L61 76 L61 76 L61 75 L61 74 L60 74 L59 73 L59 73 L58 73 L57 72 L57 72 L56 72 L55 71 L55 71 L54 71 L53 70 L53 70 L52 70 L51 69 L51 69 L50 69 L49 68 L49 68 L48 67 L48 67 L47 67 L46 66 L46 66 L45 66 L44 65 L44 65 L43 64 L43 64 L42 63 L42 63 L41 63 L40 62 L40 62 L39 61 L39 61 L38 60 L38 60 L37 59 L37 59 L36 59 L35 58 L35 58 L34 57 L34 57 L33 56 L33 56 L32 55 L32 55 L31 54 L31 54 L30 53 L30 53 L30 56 L31 57 L31 57 L32 58 L32 58 L33 59 L33 59 L34 60 L34 60 L35 61 L35 61 L36 62 L38 63 L39 64 L39 64 L40 65 L42 66 L43 67 L43 67 L44 68 L46 69 L47 70 L48 70 L49 71 L50 71 L51 72 L51 72 L52 73 L53 73 L54 74 L55 74 L56 75 L57 75 L58 76 L58 77 L57 78 L57 79 L57 80 L56 81 L56 83 L56 84 L56 85 L55 86 L55 88 L55 89 L55 90 L55 91 L55 92 L55 93 L55 94 L55 95 L55 96 L55 97 L55 98 L54 99 L54 104 L54 105 L54 106 L53 107 L53 109 L53 110 L52 111 L52 112 L52 113 L52 114 L51 115 L54 112 L51 120 L52 121 L52 123 L53 124 L53 125 L54 126 L55 128 L56 129 L56 129 L57 130 L64 142 L63 143 L63 144 L63 145 L62 146 L62 147 L62 148 L61 149 L61 150 L61 151 L60 152 L60 153 L60 154 L59 155 L59 157 L59 158 L58 159 L58 163 L58 164 L58 165 L58 166 L57 167 L57 177 L58 178 L58 179 L58 180 L57 181 L56 181 L55 182 L54 182 L53 183 L49 185 L48 184 L48 184 L47 183 L47 183 L46 183 L45 182 L44 182 L43 182 L42 182 L41 182 L40 183 L40 184 L39 185 L39 186 L39 187 L38 188 L38 190 L39 191 L39 192 L39 193 L39 194 L39 197 L40 198 L40 199 L40 200 L40 202 L41 203 L41 204 L41 206 L42 207 L42 209 L43 210 L43 211 L44 212 L44 213 L44 214 L45 215 L45 216 L46 217 L46 218 L47 219 L47 220 L48 221 L49 223 L50 224 L51 226 L52 227 L52 227 L53 228 L53 228 L54 229 L54 229 L55 230 L56 230 L57 231 L60 231 L61 230 L61 230 L62 229 L62 229 L63 228 L64 228 L65 229 L86 229 L87 228 L88 228 L89 228 L90 228 L91 228 L92 228 L93 228 L94 228 L95 228 L96 228 L97 229 L99 229 L100 229 L101 229 L102 230 L104 230 L105 230 L106 231 L107 231 L108 232 L110 233 L111 234 L111 235 L111 235 L112 236 L112 236 L113 237 L113 237 L114 238 L116 238 L117 237 L118 237 L121 235 L122 234 L123 234 L124 234 L125 234 L126 234 L129 234 L130 233 L131 233 L132 233 L134 233 L135 232 L136 232 L137 232 L138 231 L139 231 L140 230 L141 230 L142 229 L147 224 L148 223 L148 223 L149 222 L149 221 L149 220 L150 219 L150 218 L151 217 L151 215 L151 214 L152 213 L152 210 L152 209 L152 208 L152 207 L152 206 L152 205 L152 204 L152 203 L153 202 L154 202 L155 201 L156 201 L157 200 L158 200 L159 199 L160 199 L160 199 L161 198 L162 198 L163 198 L164 197 L165 197 L166 196 L166 196 L167 195 L167 195 L167 194 L167 193 L166 192 L166 191 L165 190 L165 190 L164 189 L164 188 L163 187 L162 185 L161 184 L161 183 L160 182 L160 182 L159 181 L159 180 L158 179 L159 178 L159 178 L160 177 L161 177 L163 177 L164 176 L165 176 L166 176 L167 175 L168 175 L169 175 L170 174 L171 174 L172 174 L173 174 L174 173 L175 173 L177 173 L178 172 L180 172 L181 171 L182 171 L182 171 L183 170 L183 168 L182 167 L182 166 L181 165 L181 164 L180 163 L180 162 L179 161 L178 159 L177 158 L177 157 L176 156 L176 155 L175 154 L175 153 L174 152 L174 151 L173 150 L173 149 L172 148 L172 147 L171 146 L171 145 L170 144 L170 143 L169 142 L169 141 L168 140 L169 139 L170 139 L171 138 L172 138 L173 138 L176 138 L177 137 L178 137 L179 137 L182 137 L183 136 L184 136 L185 136 L186 136 L189 136 L190 135 L191 135 L192 135 L196 135 L197 134 L198 134 L199 134 L200 134 L203 134 L204 133 L205 133 L206 133 L210 133 L211 132 L212 132 L213 132 L217 132 L218 131 L219 131 L220 131 L224 131 L225 130 L226 130 L227 130 L231 130 L232 129 L233 129 L234 129 L235 129 L239 129 L240 128 L241 128 L242 128 L246 128 L247 127 L248 127 L248 127 L249 126 L249 125 L248 124 L248 123 L248 121 L247 120 L247 119 L247 118 L246 117 L246 115 L245 114 L245 113 L244 112 L244 110 L243 109 L243 108 L242 107 L242 106 L241 105 L241 104 L241 103 L240 102 L240 101 L239 100 L239 99 L238 98 L238 97 L237 96 L237 95 L236 94 L236 93 L235 92 L235 91 L234 90 L234 89 L233 88 L233 87 L232 86 L232 85 L231 84 L231 83 L230 82 L229 80 L228 79 L228 78 L227 77 L227 77 L226 76 L226 75 L225 74 L225 74 L224 73 L224 72 L223 71 L223 71 L222 70 L219 70 L218 71 L217 71 L215 71 L214 72 L213 72 L212 72 L211 73 L210 73 L209 73 L208 74 L206 74 L205 75 L204 75 L203 76 L202 76 L201 76 L200 77 L199 77 L198 77 L197 78 L195 78 L194 79 L193 79 L192 80 L190 80 L189 81 L188 81 L187 82 L186 82 L185 82 L184 83 L183 83 L182 84 L180 84 L179 85 L178 85 L177 86 L176 86 L175 86 L174 87 L173 87 L172 88 L170 88 L169 89 L168 89 L167 90 L166 90 L165 91 L163 91 L162 92 L161 92 L160 93 L159 93 L158 94 L157 94 L156 95 L155 95 L154 96 L153 96 L152 96 L151 97 L150 97 L149 98 L148 97 L148 90 L147 89 L147 88 L147 87 L147 86 L147 83 L146 82 L146 81 L146 79 L145 78 L145 77 L146 76 L146 76 L147 75 L148 75 L149 74 L150 74 L151 73 L152 73 L153 72 L154 72 L155 71 L155 71 L156 70 L157 70 L158 69 L158 69 L159 68 L160 68 L161 67 L161 67 L162 66 L163 66 L164 65 L164 65 L165 64 L168 62 L169 61 L169 61 L170 60 L172 59 L173 58 L173 58 L174 57 L174 57 L175 56 L175 56 L176 55 L176 55 L177 54 L186 45 L187 44 L187 44 L188 43 L188 43 L189 42 L189 42 L190 41 L192 38 L193 37 L193 37 L194 36 L194 36 L195 35 L195 34 L196 33 L196 33 L197 32 L197 31 L198 30 L198 30 L199 29 L199 28 L200 27 L200 26 L201 25 L201 24 L201 23 L201 22 L201 21 L201 21 L200 20 L197 20 L196 21 L195 21 L192 21 L191 22 L190 22 L188 22 L187 23 L186 23 L185 23 L184 24 L183 24 L182 24 L181 25 L180 25 L179 25 L178 26 L177 26 L176 27 L174 27 L173 28 L172 28 L171 29 L170 29 L169 30 L168 30 L167 31 L166 31 L165 32 L164 32 L163 33 L163 33 L162 34 L161 34 L160 35 L159 35 L158 36 L158 36 L157 37 L156 37 L155 38 L155 38 L154 39 L152 40 L151 41 L149 42 L148 43 L148 43 L147 44 L147 44 L146 45 L143 47 L142 48 L142 48 L141 49 L141 49 L140 50 L140 50 L139 51 L139 51 L138 52 L136 54 L135 55 L135 55 L134 56 L134 56 L133 57 L133 57 L132 58 L132 58 L131 59 L129 59 L128 58 L126 58 L125 57 L124 57 L123 56 L121 56 L120 56 L119 55 L116 55 L115 55 L114 54 L111 54 L110 54 L109 54 L108 54 L107 54 L106 54 L105 54 L104 54 L103 54 L102 54 L101 53 L99 53 L98 54 L97 54 L96 54 L95 54 L94 54 L93 54 L90 54 L89 55 L88 55 L87 55 L85 55 L84 56 L83 56 L81 56 L80 57 L79 57 L78 58 L77 58 L76 58 L75 59 L73 59 L72 58 L72 58 L71 57 L61 47 L60 46 L60 46 L59 45 L59 45 L58 44 L58 44 L57 43 L54 41 L53 40 L53 40 L52 39 L50 38 L49 37 L49 37 L48 36 L46 35 L45 34 L45 34 L44 33 L43 33 L42 32 L40 31 L39 30 L38 30 L37 29 L35 28 L34 27 L33 27 L32 26 L31 26 L30 25 L29 25 L28 24 L27 24 L26 23 L24 23 L23 22 L22 22 L21 21 L19 21 L18 20 L15 20 L14 19 L62 73 L62 73 L62 73 L62 74 L62 74 L43 191 L43 191 L43 192 L43 192 L43 193 L43 193 L43 194 L43 194 L44 194 L44 194 L44 195 L44 195 L44 196 L44 196 L44 196 L113 222 L113 222 L113 222 L113 223 L113 223 L113 224 L113 224 L113 225 L113 225 L113 226 L112 226 L112 226 L112 227 L112 228 L112 228 L112 229 L112 229 L113 230 L113 230 L113 230 L113 227 L113 227 L148 192 L148 192 L148 191 L148 190 L148 189 L148 188 L148 187 L149 187 L149 187 L150 188 L151 188 L151 188 L152 189 L153 189 L153 189 L153 190 L153 191 L153 191 L152 192 L152 192 L151 192 L148 186 L148 185 L148 185 L147 185 L147 186 L147 186 L147 184 L147 184 L147 183 L147 183 L147 182 L147 182 L147 182 L157 196 L156 197 L161 195 L162 194 z" stroke = "rgb(88,82,76)"/><path d="M202 21 L202 21 z" stroke = "rgb(175,175,175)"/><path d="M202 23 L202 23 z" stroke = "rgb(128,128,129)"/><path d="M183 23 L183 23 z" stroke = "rgb(192,184,192)"/><path d="M29 28 L29 28 z" stroke = "rgb(130,114,32)"/><path d="M28 29 L28 29 L28 30 L28 30 z" stroke = "rgb(163,145,50)"/><path d="M30 29 L30 29 L31 30 L32 30 L33 31 L37 33 L38 34 L43 37 L44 38 L46 39 L47 40 L50 42 L51 43 L51 43 L52 44 L56 47 L57 48 L68 59 L69 60 L69 60 L70 61 L71 63 L70 64 L71 65 L72 65 L73 64 L75 63 L76 62 L86 59 L87 58 L90 58 L91 58 L92 58 L93 57 L112 57 L113 58 L117 58 L118 59 L123 60 L124 61 L126 61 L127 62 L128 62 L129 63 L131 64 L132 65 L132 65 L133 66 L134 65 L134 64 L133 63 L134 61 L135 60 L135 60 L136 59 L136 59 L137 58 L137 58 L138 57 L138 57 L139 56 L142 53 L143 52 L143 52 L144 51 L144 51 L145 50 L150 46 L151 45 L153 44 L154 43 L157 41 L158 40 L162 38 L163 37 L167 35 L168 34 L169 34 L170 33 L171 33 L172 32 L173 32 L174 31 L175 31 L176 30 L178 36 L178 45 L177 46 L175 51 L174 52 L174 52 L173 53 L173 53 L172 54 L168 57 L167 58 L167 58 L166 59 L164 60 L163 61 L163 61 L162 62 L160 63 L159 64 L154 67 L153 68 L152 68 L151 69 L149 70 L148 71 L147 71 L146 72 L145 72 L144 73 L143 73 L142 73 L142 73 L141 72 L140 72 L139 73 L140 74 L140 74 L140 75 L141 76 L141 77 L142 78 L142 80 L143 81 L143 84 L143 85 L144 86 L144 91 L144 94 L144 95 L144 96 L145 97 L146 106 L146 107 L146 108 L147 109 L147 109 L147 110 L147 111 L146 111 L146 111 L145 110 L145 110 L144 109 L144 109 L143 108 L143 108 L142 107 L141 107 L140 107 L139 107 L138 107 L138 107 L137 106 L136 107 L136 107 L135 107 L134 107 L133 108 L133 108 L132 108 L131 109 L131 109 L130 110 L130 110 L129 111 L129 112 L129 112 L128 113 L128 114 L128 114 L127 115 L127 116 L127 117 L127 118 L128 119 L128 119 L128 120 L128 121 L129 122 L129 122 L129 123 L130 124 L130 124 L131 125 L131 125 L132 126 L133 126 L133 126 L134 127 L135 127 L136 127 L136 127 L137 128 L137 128 L137 128 L136 129 L136 129 L135 129 L134 130 L134 131 L134 131 L133 132 L133 132 L132 133 L132 133 L131 134 L131 134 L130 135 L130 135 L129 136 L129 136 L128 137 L128 138 L128 138 L127 139 L127 139 L126 140 L126 140 L125 141 L125 142 L125 142 L124 143 L124 143 L123 144 L123 145 L123 145 L122 146 L122 147 L122 147 L121 148 L121 149 L122 150 L123 149 L123 148 L123 148 L124 147 L124 147 L125 146 L125 145 L125 145 L126 144 L126 144 L127 143 L127 142 L127 142 L128 141 L128 141 L129 140 L129 140 L130 139 L130 138 L130 138 L131 137 L131 137 L132 136 L132 136 L133 135 L133 135 L134 134 L134 134 L135 133 L135 133 L136 132 L136 132 L137 131 L137 130 L137 130 L138 130 L139 129 L139 129 L140 128 L140 127 L140 127 L141 127 L142 126 L142 126 L143 125 L143 125 L144 124 L144 124 L145 123 L145 123 L146 123 L147 122 L147 122 L148 121 L148 121 L149 120 L149 120 L150 119 L150 119 L151 119 L152 118 L152 118 L153 117 L153 117 L154 117 L155 116 L155 116 L156 115 L156 115 L157 115 L158 114 L158 114 L159 113 L159 112 L159 111 L159 111 L160 110 L160 110 L161 110 L161 109 L161 109 L161 109 L162 111 L163 111 L164 110 L164 110 L165 110 L166 110 L166 111 L167 112 L168 112 L169 112 L170 111 L170 111 L171 111 L171 111 L171 112 L171 113 L171 114 L172 115 L173 115 L173 115 L173 116 L173 117 L174 118 L174 118 L174 119 L174 120 L174 120 L173 121 L173 122 L173 122 L172 123 L172 124 L172 124 L171 125 L171 126 L171 127 L171 127 L170 128 L170 129 L170 129 L169 130 L169 131 L169 131 L168 132 L163 141 L162 142 L162 143 L162 143 L161 144 L161 144 L160 145 L160 145 L159 146 L159 147 L159 147 L158 148 L158 148 L157 149 L157 149 L156 150 L156 151 L156 151 L155 152 L155 152 L154 153 L154 153 L153 154 L153 154 L152 155 L152 155 L151 156 L151 156 L150 157 L150 157 L149 158 L149 158 L148 159 L148 159 L147 160 L147 160 L146 161 L146 161 L145 162 L145 162 L144 163 L144 163 L143 164 L143 164 L142 164 L141 165 L141 165 L140 166 L140 166 L139 167 L139 167 L138 167 L137 168 L137 168 L136 169 L136 169 L135 170 L136 171 L137 171 L138 170 L138 170 L139 169 L139 169 L140 169 L141 168 L141 168 L142 167 L142 167 L143 167 L143 167 L143 168 L144 169 L144 169 L144 170 L144 171 L144 172 L144 173 L144 174 L144 175 L145 176 L145 176 L145 177 L145 178 L145 179 L145 180 L145 181 L145 182 L146 183 L146 187 L147 188 L147 193 L148 194 L148 199 L148 200 L148 201 L149 202 L149 211 L148 212 L148 215 L147 216 L147 218 L146 219 L145 221 L144 222 L141 225 L140 226 L138 227 L137 228 L136 228 L135 229 L133 229 L132 230 L128 230 L127 230 L126 230 L125 230 L124 230 L124 229 L124 228 L125 227 L125 226 L125 226 L126 225 L126 224 L126 224 L127 223 L127 222 L127 221 L127 221 L128 220 L128 219 L128 219 L129 218 L129 217 L129 216 L129 216 L130 215 L130 214 L130 213 L130 213 L131 212 L131 211 L131 210 L131 210 L132 209 L132 208 L132 207 L132 206 L132 206 L133 205 L133 204 L133 203 L133 202 L133 201 L133 201 L134 200 L134 199 L134 198 L134 197 L134 196 L134 195 L134 194 L134 194 L135 194 L135 194 L136 195 L136 195 L137 196 L137 196 L138 197 L138 197 L139 198 L140 197 L140 196 L139 195 L139 195 L138 194 L138 194 L137 193 L137 193 L136 192 L135 192 L135 192 L134 191 L133 191 L133 191 L132 190 L132 190 L131 189 L130 189 L129 189 L128 189 L127 190 L127 190 L126 190 L125 190 L124 190 L123 191 L123 191 L122 191 L121 191 L120 192 L120 192 L119 192 L118 193 L118 193 L117 193 L116 194 L116 194 L115 195 L115 195 L114 196 L114 196 L113 197 L113 197 L112 198 L112 198 L111 199 L111 199 L110 200 L110 200 L109 201 L110 202 L111 201 L111 201 L112 200 L112 200 L113 199 L113 199 L114 198 L114 198 L115 197 L115 197 L116 197 L117 196 L117 196 L118 196 L119 195 L119 195 L120 194 L120 194 L121 194 L122 193 L122 193 L123 193 L124 193 L124 193 L124 194 L124 194 L123 195 L123 195 L122 196 L122 197 L122 197 L121 198 L121 199 L121 199 L120 200 L120 201 L120 201 L119 202 L119 203 L119 203 L118 204 L118 205 L118 205 L117 206 L117 207 L117 207 L116 208 L116 209 L116 209 L115 210 L115 211 L115 212 L115 212 L114 213 L114 214 L114 215 L114 215 L113 216 L113 217 L113 218 L113 218 L112 219 L112 220 L112 221 L112 224 L111 225 L108 228 L107 227 L105 227 L104 226 L101 226 L100 225 L99 225 L80 225 L78 225 L77 225 L76 225 L75 225 L74 225 L73 225 L72 225 L71 225 L70 225 L69 225 L67 225 L63 225 L62 224 L62 222 L62 221 L61 220 L61 220 L60 219 L59 220 L59 221 L59 222 L59 223 L59 224 L59 225 L58 227 L53 222 L52 221 L50 217 L49 216 L49 215 L48 214 L47 210 L46 209 L46 207 L45 206 L45 204 L44 203 L44 200 L43 199 L45 198 L46 197 L47 197 L48 196 L48 195 L47 194 L47 194 L47 193 L47 192 L47 191 L48 191 L48 190 L47 189 L46 189 L46 190 L46 190 L46 188 L46 187 L46 187 L44 188 L44 188 L44 189 L44 190 L44 190 L44 191 L44 192 L45 193 L45 193 L45 194 L45 195 L45 196 L46 196 L46 196 L44 197 L43 196 L49 193 L49 192 L51 192 L52 193 L52 193 L53 194 L53 195 L53 196 L53 196 L54 197 L54 198 L54 198 L55 199 L55 200 L55 200 L56 201 L56 202 L56 203 L56 203 L57 204 L57 205 L57 205 L58 206 L58 207 L58 208 L58 209 L57 210 L56 209 L56 208 L56 207 L56 207 L55 206 L55 205 L55 205 L54 204 L54 203 L54 203 L53 202 L53 201 L53 200 L53 200 L52 199 L52 198 L52 198 L51 197 L51 196 L51 196 L50 195 L50 194 L50 194 L51 190 L52 189 L55 186 L56 185 L57 185 L58 184 L59 184 L60 185 L60 185 L60 186 L60 187 L61 188 L61 188 L61 189 L61 190 L61 191 L62 192 L62 192 L62 193 L63 194 L63 194 L63 195 L63 196 L64 197 L64 197 L64 198 L64 199 L64 200 L64 201 L65 202 L65 202 L66 203 L67 203 L68 203 L69 202 L69 202 L69 202 L70 203 L70 203 L71 204 L72 204 L73 204 L74 203 L74 203 L75 203 L76 203 L76 203 L77 204 L78 203 L78 203 L79 202 L79 202 L80 202 L80 202 L81 203 L82 203 L83 202 L83 202 L84 201 L84 200 L84 200 L85 200 L86 200 L87 199 L87 199 L88 198 L88 197 L88 196 L87 195 L87 195 L87 194 L87 193 L87 193 L88 192 L88 191 L88 190 L88 189 L88 188 L88 187 L88 186 L88 186 L89 185 L89 184 L89 183 L89 182 L89 181 L89 180 L89 179 L88 178 L88 178 L88 178 L89 177 L89 176 L89 175 L88 174 L88 174 L88 173 L88 172 L88 171 L88 170 L88 169 L88 168 L88 167 L87 166 L87 166 L87 165 L87 164 L87 163 L86 162 L86 162 L86 161 L86 160 L86 159 L85 158 L85 158 L85 157 L84 156 L84 156 L83 155 L82 156 L82 157 L83 158 L83 158 L83 159 L83 160 L84 161 L84 161 L84 162 L84 163 L84 164 L85 165 L85 165 L85 166 L85 167 L85 168 L85 169 L85 170 L86 171 L86 171 L86 172 L86 173 L86 174 L86 175 L86 176 L86 177 L86 178 L86 179 L86 180 L86 181 L86 182 L86 183 L86 184 L86 185 L86 186 L86 187 L86 188 L86 189 L86 189 L85 190 L85 191 L85 192 L85 193 L85 194 L85 195 L85 196 L85 197 L85 197 L84 197 L83 198 L83 198 L82 199 L82 200 L82 200 L81 200 L80 200 L79 200 L78 200 L77 201 L77 201 L76 201 L76 201 L75 200 L74 200 L73 201 L73 201 L72 202 L72 202 L72 202 L71 201 L71 201 L70 200 L69 200 L68 200 L67 200 L67 199 L67 198 L66 197 L66 197 L66 196 L65 195 L65 195 L65 194 L65 193 L64 192 L64 192 L64 191 L64 190 L63 189 L63 189 L63 188 L63 187 L62 186 L62 186 L62 185 L62 184 L62 183 L62 182 L61 181 L61 174 L61 173 L61 172 L61 171 L61 170 L61 162 L62 161 L62 160 L62 157 L63 156 L63 153 L64 152 L65 148 L66 147 L66 145 L67 144 L70 141 L71 142 L71 142 L72 143 L73 143 L73 143 L74 144 L74 144 L75 145 L76 145 L76 145 L77 146 L78 146 L79 145 L78 144 L78 144 L77 143 L76 143 L76 143 L75 142 L75 142 L74 141 L73 141 L73 141 L72 140 L70 138 L69 137 L65 130 L64 130 L63 130 L62 130 L61 130 L66 129 L66 129 L67 129 L68 128 L68 128 L69 127 L69 127 L70 126 L70 126 L71 125 L71 124 L71 124 L72 123 L72 122 L72 121 L72 120 L72 119 L72 118 L72 117 L71 116 L71 116 L71 115 L70 114 L70 114 L70 113 L69 112 L69 112 L68 111 L68 111 L67 110 L66 110 L66 110 L65 109 L64 109 L63 109 L62 109 L61 109 L60 109 L59 110 L59 110 L58 110 L57 111 L57 111 L56 111 L56 109 L57 108 L57 104 L58 103 L58 102 L58 101 L65 98 L65 97 L65 96 L65 95 L65 94 L65 93 L66 92 L66 92 L66 91 L67 90 L67 90 L68 89 L68 89 L69 88 L69 88 L70 87 L71 87 L71 87 L72 86 L73 86 L74 86 L75 86 L76 86 L77 87 L77 87 L78 87 L79 87 L80 88 L80 88 L81 89 L81 89 L82 90 L82 91 L82 91 L83 92 L83 93 L83 94 L83 94 L84 95 L83 96 L83 96 L83 97 L83 98 L83 99 L82 100 L82 100 L82 101 L81 102 L81 102 L80 103 L79 103 L79 103 L78 104 L77 104 L77 104 L76 105 L75 105 L74 105 L73 105 L72 105 L71 104 L71 104 L70 104 L69 103 L69 103 L68 102 L68 102 L67 101 L67 101 L66 100 L66 99 L66 99 L58 89 L59 88 L59 87 L59 86 L59 83 L60 82 L60 80 L61 79 L61 73 L61 72 L60 72 L62 71 L62 71 L63 70 L64 70 L65 71 L64 72 L64 72 L63 73 L53 69 L52 68 L51 68 L50 67 L46 65 L45 64 L42 62 L41 61 L37 58 L36 57 L36 57 L35 56 L35 56 L34 55 L29 50 L28 49 L28 49 L27 48 L27 33 L28 32 L86 107 L85 108 L85 109 L86 110 L86 110 L86 111 L86 112 L86 113 L86 114 L86 115 L87 116 L87 116 L87 117 L87 118 L87 119 L88 120 L88 120 L88 121 L88 122 L89 123 L89 123 L89 124 L90 125 L90 125 L90 126 L90 127 L91 128 L91 128 L91 129 L92 130 L92 130 L93 131 L93 131 L93 132 L94 133 L94 133 L95 134 L95 134 L96 135 L96 135 L97 136 L97 136 L98 137 L99 137 L99 137 L100 138 L101 138 L102 138 L103 137 L103 137 L104 137 L105 136 L105 136 L106 135 L106 135 L107 134 L107 134 L108 133 L108 132 L108 132 L109 131 L109 130 L109 130 L110 129 L110 128 L110 128 L111 127 L111 126 L111 125 L111 124 L111 124 L112 123 L112 122 L112 121 L112 120 L112 120 L113 119 L113 118 L113 117 L113 116 L113 116 L114 115 L114 114 L114 113 L114 112 L114 111 L114 111 L115 110 L115 110 L116 109 L116 108 L115 107 L114 108 L114 108 L113 108 L112 109 L112 109 L111 109 L110 109 L109 109 L108 109 L108 109 L107 108 L106 108 L105 108 L105 108 L104 107 L103 107 L102 107 L102 107 L101 106 L100 106 L99 106 L98 107 L98 107 L97 107 L96 108 L96 108 L95 108 L94 109 L94 109 L93 109 L92 109 L91 109 L90 109 L89 109 L89 109 L88 108 L87 108 L87 108 L97 101 L98 100 L98 100 L99 99 L100 99 L101 99 L102 100 L102 101 L101 102 L101 102 L100 103 L99 103 L98 102 L98 102 L116 95 L116 94 L116 93 L116 92 L117 91 L117 91 L117 90 L118 89 L118 89 L118 88 L119 87 L119 87 L120 86 L120 86 L121 85 L122 85 L123 85 L123 85 L124 84 L125 84 L126 84 L127 84 L128 85 L128 85 L129 85 L130 86 L130 86 L131 86 L132 87 L132 87 L133 88 L133 89 L133 89 L134 90 L134 91 L134 91 L135 92 L135 93 L135 94 L135 95 L134 96 L134 96 L134 97 L134 98 L133 99 L133 99 L132 100 L132 100 L131 101 L131 101 L130 102 L129 102 L129 102 L128 103 L127 103 L126 103 L125 103 L124 103 L123 103 L122 102 L122 102 L121 102 L120 101 L120 101 L119 100 L119 100 L118 99 L118 99 L117 98 L117 97 L117 96 L117 96 L147 112 L147 112 L147 113 L147 113 L147 113 L166 109 L166 109 L166 109 L123 230 L123 231 L67 201 L67 201 L67 201 L43 189 L43 187 L43 186 z" stroke = "rgb(204,191,68)"/><path d="M96 53 L96 53 z" stroke = "rgb(156,153,156)"/><path d="M109 53 L109 53 z" stroke = "rgb(147,141,140)"/><path d="M77 57 L77 57 z" stroke = "rgb(188,185,178)"/><path d="M220 73 L220 73 z" stroke = "rgb(140,119,49)"/><path d="M216 74 L216 74 L217 74 L218 74 L218 74 z" stroke = "rgb(154,125,52)"/><path d="M222 76 L222 76 L223 77 L224 79 L225 80 L228 86 L229 87 L229 88 L230 89 L233 96 L234 97 L234 98 L235 99 L235 100 L236 101 L236 102 L237 103 L239 109 L240 110 L240 111 L241 112 L241 114 L242 115 L243 119 L244 120 L244 122 L245 123 L245 124 L244 125 L237 125 L236 125 L235 126 L229 126 L228 127 L221 127 L220 128 L214 128 L213 128 L212 129 L207 129 L206 129 L205 130 L200 130 L199 130 L198 131 L193 131 L192 131 L191 132 L187 132 L186 132 L185 133 L180 133 L179 133 L178 134 L174 134 L173 134 L172 135 L170 133 L171 132 L171 132 L172 131 L172 130 L172 129 L172 129 L173 128 L173 127 L173 127 L174 126 L174 125 L174 125 L175 124 L175 123 L175 122 L175 122 L176 121 L176 120 L176 120 L177 119 L177 118 L176 117 L176 117 L175 116 L175 116 L175 116 L176 115 L176 114 L175 113 L175 113 L174 112 L173 112 L173 111 L173 110 L172 109 L171 109 L170 109 L169 109 L169 109 L169 108 L168 107 L168 107 L167 106 L166 107 L166 107 L165 107 L164 108 L164 108 L163 108 L163 108 L163 107 L162 106 L161 106 L160 106 L159 107 L159 108 L159 108 L158 109 L158 110 L158 110 L157 111 L157 112 L157 112 L156 113 L156 113 L155 113 L154 114 L154 114 L153 114 L152 115 L152 115 L151 116 L151 116 L150 116 L150 115 L150 114 L150 113 L150 112 L149 111 L149 111 L149 110 L149 109 L149 108 L149 107 L148 106 L148 106 L150 117 L150 117 L150 117 L160 97 L161 96 L162 96 L163 95 L169 93 L170 92 L176 90 L177 89 L181 88 L182 87 L186 86 L187 85 L191 84 L192 83 L199 81 L200 80 L202 80 L203 79 L207 78 L208 77 L210 77 L211 76 L213 76 L214 75 L173 113 L173 113 L173 113 z" stroke = "rgb(247,220,71)"/><path d="M199 76 L199 76 z" stroke = "rgb(187,187,187)"/><path d="M146 77 L146 77 z" stroke = "rgb(194,192,186)"/><path d="M186 81 L186 81 z" stroke = "rgb(180,177,172)"/><path d="M55 84 L55 84 z" stroke = "rgb(128,129,117)"/><path d="M124 85 L124 85 L125 85 L126 85 L127 85 z" stroke = "rgb(149,120,37)"/><path d="M176 85 L176 85 z" stroke = "rgb(193,196,187)"/><path d="M121 86 L121 86 L121 86 z" stroke = "rgb(158,145,28)"/><path d="M123 86 L123 86 L124 86 L124 86 L122 87 L122 87 L121 87 L120 88 L120 88 L119 89 L119 90 L119 91 L119 92 L118 92 L117 93 L120 93 L120 93 L121 94 L121 94 L121 95 L122 96 L123 95 L123 95 L124 95 L124 95 L125 96 L126 95 L126 94 L126 94 L127 93 L127 92 L127 92 L128 91 L128 90 L128 90 L129 89 L128 88 L127 88 L127 88 L126 87 L126 87 L126 87 L127 86 L133 92 L132 93 L133 94 L134 93 z" stroke = "rgb(59,39,0)"/><path d="M125 86 L125 86 z" stroke = "rgb(19,2,0)"/><path d="M148 88 L148 88 z" stroke = "rgb(131,131,131)"/><path d="M72 87 L72 87 L73 87 L74 87 L75 87 L76 87 z" stroke = "rgb(150,122,32)"/><path d="M123 87 L123 87 L124 87 L125 87 z" stroke = "rgb(165,153,143)"/><path d="M54 94 L54 94 z" stroke = "rgb(155,151,148)"/><path d="M70 88 L70 88 L71 88 L71 88 z" stroke = "rgb(127,104,25)"/><path d="M74 88 L74 88 L75 88 L76 88 L77 88 L78 88 L78 88 L80 90 L80 90 L80 90 L80 91 L80 92 L80 93 L80 94 L79 95 L79 95 L78 96 L77 96 L77 96 L76 97 L75 97 L74 96 L74 96 L73 95 L73 95 L72 94 L72 94 L71 93 L71 92 L72 91 L72 91 L72 90 L73 89 L73 89 L68 91 L67 92 L67 93 L67 94 L67 95 L66 96 L66 97 L67 98 L67 99 L68 100 L70 102 L71 103 L72 103 L73 103 L74 103 L75 104 L75 104 L76 103 L79 102 L80 101 L80 101 L81 100 L81 99 L82 98 L82 95 L82 93 L81 92 L81 91 z" stroke = "rgb(35,16,10)"/><path d="M79 88 L79 88 z" stroke = "rgb(170,147,46)"/><path d="M121 88 L121 88 L121 88 z" stroke = "rgb(148,141,135)"/><path d="M121 89 L121 89 L121 90 L121 91 L121 92 L121 92 L122 93 L122 93 L123 93 L124 93 L125 93 L125 93 L126 92 L126 91 L126 90 L126 89 L126 89 L125 88 z" stroke = "rgb(254,254,253)"/><path d="M74 89 L74 89 L75 89 L75 89 z" stroke = "rgb(152,150,144)"/><path d="M77 89 L77 89 L78 90 L78 90 L78 91 L79 92 L79 93 L78 94 L78 94 L77 95 L76 95 L75 95 L73 93 L73 92 L73 91 L74 90 z" stroke = "rgb(193,190,189)"/><path d="M78 89 L78 89 z" stroke = "rgb(105,89,83)"/><path d="M79 89 L79 89 L79 90 z" stroke = "rgb(47,27,2)"/><path d="M120 89 L120 89 z" stroke = "rgb(115,94,99)"/><path d="M127 89 L127 89 z" stroke = "rgb(101,105,105)"/><path d="M120 91 L120 91 z" stroke = "rgb(182,167,164)"/><path d="M122 94 L122 94 L125 94 z" stroke = "rgb(132,131,126)"/><path d="M153 95 L153 95 z" stroke = "rgb(186,186,179)"/><path d="M99 100 L99 100 L100 100 L101 100 z" stroke = "rgb(175,142,24)"/><path d="M98 101 L98 101 z" stroke = "rgb(167,128,20)"/><path d="M99 101 L99 101 L100 101 z" stroke = "rgb(76,34,0)"/><path d="M53 105 L53 105 z" stroke = "rgb(171,166,163)"/><path d="M242 104 L242 104 z" stroke = "rgb(202,191,189)"/><path d="M148 113 L148 113 L149 114 L148 115 L147 114 L146 114 L146 115 L146 116 L146 117 L145 118 L145 118 L145 119 L145 120 L146 120 L147 119 L148 120 L147 121 L145 121 L144 122 L143 122 L143 122 L142 123 L142 123 L141 124 L141 124 L140 125 L140 125 L139 126 L139 126 L138 126 L138 127 L139 128 L137 125 L137 125 L136 125 L135 125 L134 125 L133 124 L133 124 L132 123 L132 123 L131 122 L131 122 L130 121 L130 120 L130 120 L129 119 L130 118 L130 118 L130 118 L129 117 L129 116 L129 115 L130 114 L130 114 L130 113 L131 112 L131 112 L132 111 L132 111 L133 110 L133 110 L134 109 L135 109 L136 109 L136 109 L137 108 L138 108 L139 109 L139 109 L140 109 L141 109 L142 109 L143 110 L143 111 L143 111 L144 112 L144 112 L145 113 L145 113 z" stroke = "rgb(159,123,44)"/><path d="M99 107 L99 107 L100 107 L101 107 z" stroke = "rgb(168,122,31)"/><path d="M160 107 L160 107 L161 108 L162 107 L166 108 z" stroke = "rgb(166,128,16)"/><path d="M168 109 L168 109 L167 110 L168 111 L169 110 L172 112 z" stroke = "rgb(148,121,34)"/><path d="M86 109 L86 109 z" stroke = "rgb(160,134,18)"/><path d="M97 108 L97 108 L98 108 L98 108 z" stroke = "rgb(174,127,41)"/><path d="M103 108 L103 108 L104 109 L106 109 L107 110 L107 115 L106 115 L105 115 L104 115 L103 115 L102 115 L101 115 L100 115 L99 115 L98 115 L97 115 L96 115 L95 116 L95 116 L94 116 L93 116 L92 117 L92 117 L91 118 L91 118 L90 118 L89 118 L89 119 L89 119 L90 120 L90 120 L90 121 L89 121 L90 122 L90 122 L90 123 L91 123 L91 123 L91 124 L91 124 L91 125 L91 126 L91 126 L88 117 L88 115 L88 114 L88 113 L87 112 L95 110 L96 109 L108 116 L108 116 L109 116 L110 117 L110 117 L111 118 L112 118 L111 119 L111 119 L111 120 L110 121 L110 121 L110 122 L111 122 L110 123 L110 123 L110 124 L110 125 L110 126 L110 126 L112 115 L112 114 L112 113 L113 112 L113 110 L113 110 z" stroke = "rgb(117,73,16)"/><path d="M60 110 L60 110 L61 111 L61 112 L62 112 L63 112 L64 113 L64 114 L63 115 L62 114 L62 114 L62 114 L61 115 L60 114 L60 113 L60 112 L59 112 L58 112 L58 112 L58 111 L59 113 L58 114 L58 115 L59 116 L59 117 L58 118 L57 117 L57 116 L57 113 L57 113 L66 112 L67 111 L67 113 L67 113 L68 114 L68 114 L69 115 L70 115 L69 116 L70 117 L70 122 L69 123 L69 124 L70 124 L70 125 L69 126 L68 125 L67 126 L66 127 L65 127 L64 127 L64 128 L63 128 L62 128 L61 127 L62 126 L63 126 L61 124 L60 123 L59 124 L60 125 L65 129 L66 128 L67 128 L68 127 L71 123 z" stroke = "rgb(166,131,8)"/><path d="M51 113 L51 113 z" stroke = "rgb(153,149,149)"/><path d="M56 112 L56 112 z" stroke = "rgb(166,109,43)"/><path d="M174 114 L174 114 L174 114 L174 114 z" stroke = "rgb(125,96,5)"/><path d="M96 123 L96 123 L97 123 L98 123 L98 123 L99 122 L100 122 L101 122 L102 123 L102 123 L103 123 L104 123 L105 123 L106 123 L107 123 L108 124 L108 124 L109 125 L109 126 L108 127 L108 127 L108 128 L107 129 L107 129 L107 130 L106 131 L106 131 L106 132 L105 133 L105 133 L105 134 L104 135 L103 135 L103 135 L102 136 L101 136 L100 136 L99 135 L99 135 L98 135 L97 134 L97 134 L96 133 L96 132 L96 132 L95 131 L95 130 L95 130 L94 129 L94 129 L93 128 L93 127 L93 127 L92 126 L92 125 L93 124 L93 124 L94 123 L95 123 z" stroke = "rgb(212,92,94)"/><path d="M135 130 L135 130 L135 130 z" stroke = "rgb(180,144,32)"/><path d="M234 130 L234 130 z" stroke = "rgb(149,142,130)"/><path d="M212 133 L212 133 z" stroke = "rgb(167,165,162)"/><path d="M185 137 L185 137 z" stroke = "rgb(168,171,167)"/><path d="M164 143 L164 143 L164 143 L163 144 L163 144 L162 145 L162 146 L162 146 L161 147 L161 148 L161 148 L160 149 L160 149 L159 150 L159 151 L159 151 L158 151 L157 152 L157 152 L156 153 L156 154 L156 154 L155 155 L154 155 L153 155 L155 156 L155 156 L155 157 L155 157 L156 157 L156 157 L156 158 L156 158 L157 158 L157 158 L157 159 L157 159 L157 159 z" stroke = "rgb(196,157,66)"/><path d="M168 148 L168 148 L169 149 L158 159 L159 160 L159 161 L159 162 L158 163 L157 163 L156 163 L156 163 L155 164 L154 164 L154 164 L153 165 L152 165 L152 165 L151 166 L150 166 L149 166 L149 166 L148 167 L147 167 L147 167 L146 168 L146 168 L146 169 L146 170 L146 171 L146 172 L146 173 L146 173 L147 174 L147 175 L147 176 L147 177 L147 178 L147 179 L147 180 L147 180 L148 181 L150 183 L151 184 L151 184 L152 184 L152 183 L153 182 L154 183 L154 183 L155 184 L155 184 L155 184 L156 183 L153 185 L153 185 L153 185 L152 185 L152 185 L150 185 L150 185 L150 186 L151 187 L151 187 L149 184 z" stroke = "rgb(222,176,63)"/><path d="M62 144 L62 144 z" stroke = "rgb(197,192,191)"/><path d="M61 147 L61 147 z" stroke = "rgb(189,186,182)"/><path d="M60 150 L60 150 z" stroke = "rgb(183,181,179)"/><path d="M87 172 L87 172 z" stroke = "rgb(99,72,0)"/><path d="M152 156 L152 156 L152 156 z" stroke = "rgb(138,124,37)"/><path d="M152 157 L152 157 L151 158 L151 158 L150 159 L150 159 L149 160 L149 160 L148 161 L148 161 L147 162 L147 162 L146 163 L146 163 L145 164 L144 165 L143 165 L143 165 L145 166 L145 167 L145 168 L145 170 L150 165 L151 164 L157 162 L158 161 L158 161 L157 160 z" stroke = "rgb(45,31,0)"/><path d="M57 165 L57 165 z" stroke = "rgb(136,137,131)"/><path d="M87 175 L87 175 L88 176 L88 176 L87 177 L87 179 L87 180 L88 181 L88 181 L87 182 L87 183 L88 184 L88 184 L87 185 L87 190 L87 191 L87 191 z" stroke = "rgb(142,119,7)"/><path d="M171 175 L171 175 z" stroke = "rgb(165,159,150)"/><path d="M167 176 L167 176 z" stroke = "rgb(116,111,107)"/><path d="M160 178 L160 178 z" stroke = "rgb(112,109,109)"/><path d="M46 182 L46 182 z" stroke = "rgb(129,125,121)"/><path d="M62 188 L62 188 z" stroke = "rgb(107,81,5)"/><path d="M78 202 L78 202 z" stroke = "rgb(98,66,9)"/><path d="M83 201 L83 201 z" stroke = "rgb(168,136,33)"/><path d="M128 191 L128 191 L129 192 L130 192 L131 192 L131 193 L132 193 L132 194 L131 194 L131 195 L130 195 L130 195 L130 196 L131 196 L131 196 L130 197 L130 197 L130 198 L129 198 L129 198 L129 199 L130 199 L130 199 L129 200 L129 200 L129 201 L129 201 L128 201 L128 201 L128 202 L127 202 L127 202 L127 203 L127 203 L128 203 L128 203 L126 201 L126 201 L126 200 L126 199 L126 199 L126 198 L126 198 L127 198 L127 198 L127 197 L127 196 L127 195 L127 195 L128 195 L128 194 L128 193 L128 193 L129 193 L129 194 L129 194 L128 196 L128 197 L128 197 L126 194 L126 194 L126 193 L127 192 L127 192 L125 195 L125 195 L124 196 L124 197 L124 197 L123 198 L123 199 L123 199 L122 200 L122 201 L122 201 L121 202 L121 202 L120 203 L120 204 L120 204 L119 205 L119 206 L119 207 L119 208 L119 208 L118 209 L118 210 L118 210 L117 211 L117 212 L117 212 L116 213 L116 214 L116 215 L116 216 L116 216 L115 217 L115 218 L115 219 L115 220 L115 221 L115 221 L114 222 L114 223 L114 224 L114 224 L123 225 L123 225 L123 226 L124 224 L124 223 L124 223 L125 222 L125 221 L125 221 L126 220 L126 219 L126 218 L126 218 L127 217 L127 216 L127 216 L128 215 L128 214 L128 213 L128 213 L129 212 L129 211 L129 210 L129 209 L129 209 L130 208 L130 207 L130 207 L131 206 L131 205 L131 204 L131 203 L131 203 L132 202 L132 201 L132 200 L132 199 L132 199 L133 198 L133 197 L133 196 L133 195 L133 192 L132 191 L125 200 L125 200 L125 201 L125 202 L125 202 L125 202 z" stroke = "rgb(132,114,31)"/><path d="M38 193 L38 193 z" stroke = "rgb(168,164,160)"/><path d="M121 228 L121 228 L120 229 L120 230 L119 231 L119 231 L118 232 L117 233 L116 234 L115 234 L114 233 L114 231 L114 229 L114 228 z" stroke = "rgb(235,186,70)"/><path d="M161 199 L161 199 z" stroke = "rgb(119,117,115)"/><path d="M159 200 L159 200 z" stroke = "rgb(120,116,112)"/><path d="M78 201 L78 201 z" stroke = "rgb(174,144,43)"/><path d="M82 201 L82 201 L81 202 z" stroke = "rgb(97,63,2)"/><path d="M43 212 L43 212 z" stroke = "rgb(135,132,133)"/><path d="M150 220 L150 220 z" stroke = "rgb(111,105,113)"/><path d="M100 230 L100 230 z" stroke = "rgb(168,166,163)"/><path d="M104 231 L104 231 z" stroke = "rgb(180,177,174)"/><path d="M135 233 L135 233 z" stroke = "rgb(114,108,112)"/><path d="M117 238 L117 238 z" stroke = "rgb(122,121,119)"/></g></svg>